<svg xmlns="http://www.w3.org/2000/svg" viewBox="0 0 48 48" fill="#FFFFFF">
  <path d="M24,4C12.95,4,4,12.95,4,24s8.95,20,20,20s20-8.95,20-20S35.05,4,24,4z M24,42c-9.92,0-18-8.08-18-18S14.08,6,24,6 s18,8.08,18,18S33.92,42,24,42z"/>
  <path d="M24,10c-7.73,0-14,6.27-14,14c0,6.17,3.99,11.39,9.53,13.23c0.7,0.13,0.95-0.3,0.95-0.67c0-0.33-0.01-1.2-0.02-2.35 c-3.88,0.84-4.7-1.87-4.7-1.87c-0.64-1.62-1.55-2.05-1.55-2.05c-1.27-0.87,0.1-0.85,0.1-0.85c1.4,0.1,2.14,1.44,2.14,1.44 c1.25,2.14,3.28,1.52,4.07,1.16c0.13-0.9,0.49-1.52,0.89-1.87c-3.11-0.35-6.38-1.55-6.38-6.92c0-1.53,0.55-2.78,1.44-3.76 c-0.14-0.35-0.62-1.78,0.14-3.7c0,0,1.18-0.38,3.85,1.44c1.12-0.31,2.32-0.47,3.52-0.47c1.2,0,2.4,0.16,3.52,0.47 c2.67-1.81,3.85-1.44,3.85-1.44c0.77,1.92,0.28,3.35,0.14,3.7c0.9,0.98,1.44,2.23,1.44,3.76c0,5.38-3.27,6.56-6.4,6.91 c0.5,0.43,0.95,1.29,0.95,2.6c0,1.88-0.02,3.39-0.02,3.85c0,0.37,0.25,0.81,0.96,0.67C34.01,35.39,38,30.17,38,24 C38,16.27,31.73,10,24,10z"/>
</svg> 