<svg xmlns="http://www.w3.org/2000/svg" viewBox="0 0 48 48">
  <path fill="#FFC107" d="M43.611,20.083H42V20H24v8h11.303c-1.649,4.657-6.08,8-11.303,8c-6.627,0-12-5.373-12-12s5.373-12,12-12c3.059,0,5.842,1.154,7.961,3.039l5.657-5.657C34.046,6.053,29.268,4,24,4C12.955,4,4,12.955,4,24s8.955,20,20,20s20-8.955,20-20c0-1.341-.128-2.64-.359-3.917Z"/>
  <path fill="#FF3D00" d="m6.306,14.691l6.571,4.819C14.655,15.108,18.961,12,24,12c3.059,0,5.842,1.154,7.961,3.039l5.657-5.657C34.046,6.053,29.268,4,24,4,16.318,4,9.656,8.337,6.306,14.691Z"/>
  <path fill="#4CAF50" d="M24,44c5.166,0,9.86-1.977,13.409-5.192l-6.19-5.238C29.211,35.091,26.715,36,24,36c-5.202,0-9.619-3.317-11.283-7.946l-6.522,5.025C9.505,39.556,16.227,44,24,44Z"/>
  <path fill="#1976D2" d="M43.611,20.083H42V20H24v8h11.303c-.792,2.447-2.274,4.488-4.384,5.965l6.19,5.238C42.025,35.636,44,30.138,44,24c0-1.341-.128-2.64-.359-3.917Z"/>
</svg> 